<?xml version="1.0" encoding="UTF-8"?>
<svg xmlns="http://www.w3.org/2000/svg" id="Layer_1" data-name="Layer 1" viewBox="0 0 24 24">
  <path d="M20.786,4.758c-.101-.024-1.614-.372-3.841-.64l-.852-2.457c-.059-.169-.203-.294-.38-.327-.071-.014-1.784-.334-3.713-.334s-3.642,.321-3.714,.334c-.176,.034-.32,.158-.379,.328l-.852,2.456c-2.226,.268-3.74,.616-3.842,.64-.27,.062-.437,.331-.374,.6,.054,.231,.26,.387,.487,.387,.037,0,.075-.004,.113-.013,.01-.002,.266-.061,.715-.148-.199,1.677-.385,4.286-.385,6.738,0,5.306,.865,9.19,.902,9.353,.04,.176,.172,.318,.346,.369,.131,.039,3.268,.956,6.981,.956s6.85-.917,6.981-.956c.174-.051,.307-.193,.347-.37,.036-.165,.901-4.091,.901-9.352,0-2.46-.185-5.067-.383-6.738,.448,.087,.703,.146,.713,.148,.271,.063,.537-.104,.601-.373,.062-.269-.104-.538-.374-.601ZM8.756,2.269c.553-.088,1.85-.269,3.244-.269s2.689,.18,3.245,.269l.6,1.731c-1.168-.111-2.475-.19-3.845-.19s-2.676,.078-3.845,.19l.6-1.731Zm10.474,10.054c0,4.343-.619,7.835-.817,8.841-.85,.221-3.48,.837-6.412,.837s-5.564-.616-6.413-.837c-.198-.999-.816-4.464-.816-8.841,0-2.551,.214-5.35,.416-6.923,1.591-.264,4.101-.589,6.813-.589s5.226,.325,6.815,.589c.208,1.613,.414,4.348,.414,6.923Z"/>
  <path d="M9.558,9.118c-.276,0-.5,.224-.5,.5v8.042c0,.276,.224,.5,.5,.5s.5-.224,.5-.5V9.618c0-.276-.224-.5-.5-.5Z"/>
  <path d="M14.442,18.16c.276,0,.5-.224,.5-.5V9.618c0-.276-.224-.5-.5-.5s-.5,.224-.5,.5v8.042c0,.276,.224,.5,.5,.5Z"/>
</svg>
